<?xml version="1.0" encoding="UTF-8"?>
<!DOCTYPE svg PUBLIC "-//W3C//DTD SVG 1.1//EN" "http://www.w3.org/Graphics/SVG/1.1/DTD/svg11.dtd">
<!-- Creator: CorelDRAW X7 -->
<svg xmlns="http://www.w3.org/2000/svg" xml:space="preserve" width="91.1356mm" height="68.6774mm" version="1.1" style="shape-rendering:geometricPrecision; text-rendering:geometricPrecision; image-rendering:optimizeQuality; fill-rule:evenodd; clip-rule:evenodd"
viewBox="0 0 9226 6952"
 xmlns:xlink="http://www.w3.org/1999/xlink">
 <defs>
  <style type="text/css">
   <![CDATA[
    .fil0 {fill:black}
   ]]>
  </style>
 </defs>
 <g id="Слой_x0020_1">
  <metadata id="CorelCorpID_0Corel-Layer"/>
  <g id="_1703016162752">
   <path class="fil0" d="M6503 339c37,481 39,1307 41,1978 -37,3 -75,8 -114,12 -25,-532 -57,-1161 -93,-1627 -13,-173 -164,-303 -338,-289 -173,13 -304,164 -290,338 38,482 71,1145 96,1690 -37,9 -74,18 -109,28 -45,-457 -107,-933 -180,-1234 -40,-169 -210,-273 -379,-233 -169,41 -273,211 -233,380 103,428 192,1347 229,1909 -11,201 -14,424 -14,623 0,299 13,801 63,984 72,266 198,525 369,694 56,56 110,110 145,155l0 1205 2100 0 0 -1208c23,-359 268,-384 460,-775 23,-36 47,-78 69,-126 123,-262 254,-671 381,-1066 109,-341 213,-663 292,-827 22,-44 44,-87 65,-129 86,-170 163,-323 163,-434 0,-30 -6,-57 -18,-81 -27,-50 -79,-79 -161,-90 -186,-24 -610,154 -884,1002 -21,66 -55,114 -98,153 -70,35 -134,-76 -156,-194 -2,-69 -3,-153 -3,-250 0,-9 1,-19 1,-28 0,-6 -1,-11 -1,-16 5,-596 52,-1596 117,-2204 1,-11 1,-22 1,-33 0,-159 -120,-296 -281,-313 -173,-18 -328,107 -346,280 -51,474 -90,1159 -109,1734 -37,-8 -76,-16 -114,-23 -2,-683 -4,-1527 -43,-2033 -13,-174 -165,-303 -338,-290 -174,14 -305,165 -290,338z"/>
   <path class="fil0" d="M2723 339c-37,481 -39,1307 -41,1978 37,3 75,8 114,12 25,-532 57,-1161 93,-1627 13,-173 164,-303 338,-289 173,13 304,164 289,338 -37,482 -70,1145 -95,1690 37,9 73,18 109,28 45,-457 107,-933 180,-1234 40,-169 210,-273 379,-233 169,41 273,211 232,380 -102,428 -192,1347 -228,1909 11,201 14,424 14,623 0,299 -13,801 -63,984 -72,266 -198,525 -369,694 -56,56 -110,110 -145,155l0 1205 -2100 0 0 -1208c-23,-359 -268,-384 -460,-775 -24,-36 -47,-78 -69,-126 -123,-262 -254,-671 -381,-1066 -110,-341 -213,-663 -293,-827 -21,-44 -43,-87 -64,-129 -86,-170 -163,-323 -163,-434 0,-30 6,-57 18,-81 27,-50 79,-79 161,-90 186,-24 610,154 884,1002 21,66 55,114 98,153 70,35 134,-76 156,-194 2,-69 3,-153 3,-250 0,-9 -1,-19 -1,-28 0,-6 1,-11 1,-16 -5,-596 -52,-1595 -117,-2203 -1,-12 -2,-23 -2,-34 0,-159 120,-296 282,-313 173,-18 328,107 346,280 51,474 90,1159 108,1734 38,-8 77,-16 115,-23 2,-683 4,-1527 43,-2033 13,-174 165,-303 338,-290 174,14 305,165 290,338z"/>
  </g>
 </g>
</svg>
