<?xml version="1.0" encoding="UTF-8"?>
<!DOCTYPE svg PUBLIC "-//W3C//DTD SVG 1.1//EN" "http://www.w3.org/Graphics/SVG/1.1/DTD/svg11.dtd">
<!-- Creator: CorelDRAW X7 -->
<svg xmlns="http://www.w3.org/2000/svg" xml:space="preserve" width="63.8192mm" height="60.7028mm" version="1.1" style="shape-rendering:geometricPrecision; text-rendering:geometricPrecision; image-rendering:optimizeQuality; fill-rule:evenodd; clip-rule:evenodd"
viewBox="0 0 6382 6070"
 xmlns:xlink="http://www.w3.org/1999/xlink">
 <defs>
  <style type="text/css">
   <![CDATA[
    .fil0 {fill:black}
   ]]>
  </style>
 </defs>
 <g id="Слой_x0020_1">
  <metadata id="CorelCorpID_0Corel-Layer"/>
  <path class="fil0" d="M5634 3827l748 -794 -749 -793 138 -1082 -1072 -201 -524 -957 -986 467 -986 -466 -523 958 -1072 202 140 1082 -748 794 749 793 -139 1082 1073 202 524 956 985 -467 987 466 522 -957 1073 -203 -15 -111 -125 -971zm-2443 1301c-1156,0 -2092,-937 -2092,-2093 0,-1155 936,-2092 2092,-2092 1156,0 2092,937 2092,2092 0,1156 -936,2093 -2092,2093z"/>
  <path class="fil0" d="M3191 1338c-936,0 -1698,761 -1698,1697 0,936 762,1698 1698,1698 936,0 1698,-762 1698,-1698 0,-936 -762,-1697 -1698,-1697zm-34 2484l-781 -652 -151 -126 252 -303 626 521 888 -1092 307 249 -1141 1403z"/>
 </g>
</svg>
