<?xml version="1.0" encoding="UTF-8"?>
<!DOCTYPE svg PUBLIC "-//W3C//DTD SVG 1.1//EN" "http://www.w3.org/Graphics/SVG/1.1/DTD/svg11.dtd">
<!-- Creator: CorelDRAW X7 -->
<svg xmlns="http://www.w3.org/2000/svg" xml:space="preserve" width="47.7126mm" height="51.291mm" version="1.1" style="shape-rendering:geometricPrecision; text-rendering:geometricPrecision; image-rendering:optimizeQuality; fill-rule:evenodd; clip-rule:evenodd"
viewBox="0 0 4771 5129"
 xmlns:xlink="http://www.w3.org/1999/xlink">
 <defs>
  <style type="text/css">
   <![CDATA[
    .fil0 {fill:black}
   ]]>
  </style>
 </defs>
 <g id="Слой_x0020_1">
  <metadata id="CorelCorpID_0Corel-Layer"/>
  <g id="_1703010723008">
   <path class="fil0" d="M2386 0l-927 371 2121 930 1029 -412 -2223 -889zm-1236 494l-988 395 2224 889 883 -352 -2119 -932zm-1150 589l0 3151 2266 895 0 -3140 -2266 -906zm4771 0l-1073 429 0 874c0,0 0,1 0,1 0,66 -54,120 -120,120 -65,0 -119,-54 -119,-120 0,0 0,-1 0,-1l0 -779 -954 382 0 3140 2266 -895 0 -3151 0 0z" display="inline"/>
  </g>
 </g>
</svg>
